<svg width="40" height="50" viewBox="0 0 40 50" fill="none" xmlns="http://www.w3.org/2000/svg">
<path opacity="0.2" d="M26.62 19.95C30.9133 20.65 34.2033 22.26 36.49 24.78C38.7767 27.2533 39.92 30.3333 39.92 34.02C39.92 36.8667 39.1733 39.5033 37.68 41.93C36.1867 44.31 33.9 46.2233 30.82 47.67C27.7867 49.1167 24.0533 49.84 19.62 49.84C16.1667 49.84 12.76 49.3967 9.4 48.51C6.08667 47.5767 3.26333 46.27 0.93 44.59L5.34 35.91C7.20667 37.31 9.35333 38.4067 11.78 39.2C14.2533 39.9467 16.7733 40.32 19.34 40.32C22.1867 40.32 24.4267 39.7833 26.06 38.71C27.6933 37.59 28.51 36.0267 28.51 34.02C28.51 30.0067 25.4533 28 19.34 28H14.16V20.51L24.24 9.1H3.38V-3.33786e-06H37.68V7.35L26.62 19.95Z" fill="#E33E54"/>
</svg>
