<svg width="40" height="50" viewBox="0 0 40 50" fill="none" xmlns="http://www.w3.org/2000/svg">
<path opacity="0.2" d="M39.34 40.76V50H2.31V42.65L21.21 24.8C23.2167 22.8867 24.57 21.2533 25.27 19.9C25.97 18.5 26.32 17.1233 26.32 15.77C26.32 13.81 25.6433 12.3167 24.29 11.29C22.9833 10.2167 21.0467 9.68 18.48 9.68C16.3333 9.68 14.3967 10.1 12.67 10.94C10.9433 11.7333 9.49667 12.9467 8.33 14.58L0.07 9.26C1.98333 6.41333 4.62 4.19667 7.98 2.61C11.34 0.976665 15.19 0.159999 19.53 0.159999C23.17 0.159999 26.3433 0.766665 29.05 1.98C31.8033 3.14666 33.9267 4.82667 35.42 7.02C36.96 9.16667 37.73 11.71 37.73 14.65C37.73 17.31 37.17 19.8067 36.05 22.14C34.93 24.4733 32.76 27.1333 29.54 30.12L18.27 40.76H39.34Z" fill="#E33E54"/>
</svg>
