<svg width="40" height="50" viewBox="0 0 40 50" fill="none" xmlns="http://www.w3.org/2000/svg">
<path opacity="0.2" d="M19.53 18.41C26.4367 18.41 31.5233 19.7867 34.79 22.54C38.1033 25.2933 39.76 28.98 39.76 33.6C39.76 36.5867 39.0133 39.3167 37.52 41.79C36.0267 44.2167 33.74 46.1767 30.66 47.67C27.6267 49.1167 23.87 49.84 19.39 49.84C15.9367 49.84 12.53 49.3967 9.17 48.51C5.85667 47.5767 3.03333 46.27 0.7 44.59L5.18 35.91C7.04667 37.31 9.19333 38.4067 11.62 39.2C14.0467 39.9467 16.5433 40.32 19.11 40.32C21.9567 40.32 24.1967 39.76 25.83 38.64C27.4633 37.52 28.28 35.9567 28.28 33.95C28.28 31.85 27.4167 30.2633 25.69 29.19C24.01 28.1167 21.07 27.58 16.87 27.58H4.34L6.86 -3.33786e-06H36.75V9.1H16.31L15.54 18.41H19.53Z" fill="#E33E54"/>
</svg>
