<svg width="42" height="51" viewBox="0 0 42 51" fill="none" xmlns="http://www.w3.org/2000/svg">
<path opacity="0.2" d="M24.32 19.27C27.4467 19.27 30.2933 19.9 32.86 21.16C35.4267 22.42 37.4567 24.2167 38.95 26.55C40.4433 28.8367 41.19 31.4967 41.19 34.53C41.19 37.7967 40.3733 40.6667 38.74 43.14C37.1067 45.6133 34.8667 47.5267 32.02 48.88C29.22 50.1867 26.0933 50.84 22.64 50.84C15.78 50.84 10.4133 48.74 6.54 44.54C2.66667 40.34 0.73 34.3433 0.73 26.55C0.73 20.9967 1.78 16.2367 3.88 12.27C5.98 8.30333 8.89667 5.29333 12.63 3.24C16.41 1.18667 20.7733 0.159999 25.72 0.159999C28.3333 0.159999 30.83 0.463331 33.21 1.07C35.6367 1.63 37.69 2.44666 39.37 3.52L35.17 11.85C32.7433 10.2167 29.6867 9.4 26 9.4C21.8467 9.4 18.5567 10.6133 16.13 13.04C13.7033 15.4667 12.3967 18.99 12.21 23.61C15.1033 20.7167 19.14 19.27 24.32 19.27ZM22.01 42.37C24.4367 42.37 26.3967 41.7167 27.89 40.41C29.43 39.1033 30.2 37.33 30.2 35.09C30.2 32.85 29.43 31.0767 27.89 29.77C26.3967 28.4167 24.39 27.74 21.87 27.74C19.3967 27.74 17.3667 28.44 15.78 29.84C14.1933 31.1933 13.4 32.9433 13.4 35.09C13.4 37.2367 14.17 38.9867 15.71 40.34C17.25 41.6933 19.35 42.37 22.01 42.37Z" fill="#E33E54"/>
</svg>
